# xmcd
#
# Track frame offsets: 
#        150
#        18564
#        48182
#        55164
#        77837
#
# Disc length: 1293 seconds
#
# Revision: 0
# Processed by: cddbd v1.5.2PL0 Copyright (c) Steve Scherf et al.
# Submitted via: ExactAudioCopyFreeDBPlugin 1.0
#
DISCID=35050b05
DTITLE=Stump Tail Dolly - Americonoclasm
DYEAR=2015
DGENRE=
TTITLE0=I've Endured - Reed (arr. STD)
TTITLE1=Insomnia
TTITLE2=Stump Tail Dolly- Traditional
TTITLE3=Marish Prophet
TTITLE4=Billy
EXTD=
EXTT0=
EXTT1=
EXTT2=
EXTT3=
EXTT4=
PLAYORDER=
